<svg width="104" height="30" viewBox="0 0 104 30" fill="none" xmlns="http://www.w3.org/2000/svg">
<path d="M5.35278 0.102543C3.22408 0.994284 0.883918 3.51038 0.144827 6.67104C-0.791204 10.6744 3.10399 12.3674 3.42347 11.8132C3.7995 11.1607 2.72552 10.9402 2.50442 8.86293C2.21873 6.18 3.46601 3.18215 5.03592 1.86677C5.32774 1.62239 5.31374 1.96253 5.31374 2.59168C5.31374 3.71695 5.2516 13.8167 5.2516 15.9247C5.2516 18.7769 5.13378 19.6776 4.92214 20.5674C4.70769 21.4693 4.36318 22.0787 4.62419 22.3136C4.91601 22.5762 6.16172 21.9516 6.88295 20.945C7.74774 19.7378 8.05041 18.288 8.10485 16.7135C8.1705 14.8156 8.1677 11.8039 8.1705 10.0861C8.17312 8.51054 8.19693 3.89708 8.14284 1.12365C8.12971 0.443379 6.24312 -0.270329 5.35278 0.102543ZM103.533 15.0864C103.224 15.0864 103.084 15.4046 102.967 15.9405C102.562 17.8036 102.138 18.2241 101.589 18.2241C100.977 18.2241 100.427 17.3016 100.285 15.4551C100.174 14.0031 100.192 11.3298 100.334 8.67089C100.363 8.12454 100.213 7.58396 98.7472 7.05161C98.1166 6.82246 97.2 6.48548 96.7437 7.58711C95.4544 10.6995 94.9497 13.1706 94.831 14.174C94.8248 14.226 94.7613 14.2365 94.7499 14.1152C94.6743 13.3113 94.5052 11.8503 94.4842 8.781C94.4802 8.18213 94.3532 7.67237 93.6922 7.25503C93.2633 6.98404 91.9609 6.50526 91.4919 7.07507C91.0858 7.54107 90.6151 8.79518 90.1261 10.2818C89.7288 11.4898 89.452 12.3072 89.452 12.3072C89.452 12.3072 89.4571 9.04709 89.462 7.81049C89.4641 7.34396 89.1441 7.18833 89.0476 7.16032C88.6135 7.03428 87.7576 6.82369 87.3945 6.82369C86.9462 6.82369 86.8365 7.07419 86.8365 7.43919C86.8365 7.48698 86.7657 11.7314 86.7657 14.6993C86.7657 14.8282 86.7659 14.9689 86.7664 15.1184C86.5186 16.4825 85.7147 18.3342 84.8405 18.3342C83.9652 18.3342 83.5524 17.5601 83.5524 14.0219C83.5524 11.9579 83.6144 11.0602 83.6446 9.56753C83.6625 8.70765 83.6966 8.04716 83.6945 7.89749C83.6881 7.43796 82.8935 7.20636 82.5238 7.12058C82.1523 7.03446 81.8295 7.00085 81.5774 7.0152C81.2206 7.03533 80.9684 7.26938 80.9684 7.59131C80.9684 7.76392 80.9703 8.09198 80.9703 8.09198C80.5108 7.36987 79.7715 6.86728 79.2799 6.72163C77.9555 6.32845 76.5734 6.67699 75.5309 8.13557C74.7024 9.29462 74.2029 10.6075 74.0063 12.4936C73.8626 13.8724 73.9095 15.2707 74.165 16.4532C73.8563 17.7875 73.2834 18.3342 72.656 18.3342C71.7451 18.3342 71.0848 16.8476 71.1615 14.2764C71.2121 12.5852 71.5505 11.3985 71.9204 9.6815C72.0781 8.94941 71.95 8.56638 71.6285 8.19911C71.3337 7.86213 70.7058 7.69022 69.8027 7.90187C69.1595 8.05259 68.2398 8.21504 67.3986 8.33968C67.3986 8.33968 67.4494 8.13714 67.4911 7.78003C67.7099 5.90726 65.6749 6.05921 65.0256 6.65738C64.638 7.0145 64.3742 7.43569 64.274 8.19298C64.1153 9.39458 65.0952 9.96159 65.0952 9.96159C64.7737 11.4338 63.9854 13.3566 63.1717 14.7469C62.7358 15.4918 62.4022 16.0438 61.9719 16.6306C61.9703 16.4124 61.9691 16.1943 61.9684 15.9762C61.9584 12.8814 61.9997 10.4456 62.0177 9.56771C62.0356 8.70783 62.0701 8.06502 62.068 7.91534C62.0633 7.57923 61.867 7.45214 61.4588 7.29162C61.0978 7.14947 60.671 7.05109 60.2283 7.01678C59.6697 6.97336 59.3329 7.26956 59.3418 7.62002C59.3436 7.68619 59.3436 8.0925 59.3436 8.0925C58.884 7.37039 58.1448 6.8678 57.6532 6.72216C56.3287 6.32898 54.9466 6.67752 53.9042 8.13609C53.0758 9.29515 52.5333 10.9216 52.3796 12.4796C52.2364 13.9317 52.2628 15.1657 52.458 16.2052C52.2474 17.2461 51.6419 18.3346 50.9573 18.3346C50.082 18.3346 49.5839 17.5605 49.5839 14.0222C49.5839 11.9583 49.6459 11.0608 49.6762 9.56788C49.6941 8.708 49.7282 8.04751 49.7261 7.89784C49.7196 7.43831 48.925 7.20671 48.5553 7.12093C48.1684 7.03131 47.8344 6.99857 47.578 7.01748C47.2394 7.04268 47.0017 7.34553 47.0017 7.57153V8.0925C46.5422 7.37039 45.8029 6.8678 45.3113 6.72216C43.9868 6.32898 42.6125 6.68312 41.5623 8.13609C40.8775 9.0835 40.3231 10.1338 40.0377 12.459C39.9553 13.1308 39.9189 13.7602 39.9236 14.3482C39.6505 16.0182 38.4445 17.943 37.4577 17.943C36.8804 17.943 36.3305 16.8233 36.3305 14.4367C36.3305 11.2577 36.5275 6.73161 36.5606 6.29537C36.5606 6.29537 37.8072 6.27418 38.0486 6.27138C38.6705 6.26456 39.2337 6.27926 40.0617 6.2369C40.4771 6.21571 40.8773 4.72493 40.4486 4.54042C40.2545 4.45691 38.881 4.38374 38.3367 4.37219C37.8789 4.36186 36.6043 4.2675 36.6043 4.2675C36.6043 4.2675 36.7186 1.26317 36.7454 0.945793C36.768 0.681107 36.4258 0.545087 36.2295 0.462285C35.7522 0.260619 35.3254 0.163813 34.8193 0.0594786C34.1201 -0.0847685 33.8027 0.0563276 33.7409 0.64662C33.6476 1.54204 33.5993 4.16544 33.5993 4.16544C33.086 4.16544 31.3335 4.06514 30.8203 4.06514C30.3432 4.06514 29.8287 6.11593 30.488 6.14114C31.2465 6.17055 32.5684 6.19593 33.4447 6.22237C33.4447 6.22237 33.4057 10.8232 33.4057 12.2436C33.4057 12.3947 33.4062 12.5402 33.4073 12.6815C32.925 15.1953 31.2261 16.5532 31.2261 16.5532C31.5909 14.8901 30.8457 13.6413 29.5035 12.5841C29.0088 12.1944 28.0327 11.4571 26.9403 10.6489C26.9403 10.6489 27.573 10.0253 28.134 8.77067C28.5316 7.88208 28.5487 6.86518 27.5728 6.64093C25.9607 6.27033 24.6311 7.45424 24.2346 8.71833C23.9274 9.69778 24.0912 10.4243 24.6931 11.1793C24.737 11.2344 24.7846 11.2906 24.8338 11.3473C24.4699 12.0488 23.9699 12.9932 23.5465 13.7257C22.371 15.7591 21.4832 17.3676 20.8121 17.3676C20.2757 17.3676 20.2831 15.7346 20.2831 14.2057C20.2831 12.8877 20.3804 10.906 20.4581 8.85435C20.4838 8.17583 20.1444 7.7893 19.5756 7.43919C19.2301 7.22649 18.4926 6.80828 18.0656 6.80828C17.4263 6.80828 15.5817 6.89529 13.8389 11.9368C13.6192 12.5722 13.1876 13.73 13.1876 13.73L13.2247 7.66746C13.2247 7.52532 13.1489 7.38772 12.9756 7.29372C12.6819 7.13441 11.8975 6.80828 11.2 6.80828C10.8678 6.80828 10.7018 6.96286 10.7018 7.27096L10.6409 16.7561C10.6409 17.4768 10.6596 18.3176 10.7311 18.6852C10.802 19.0535 10.917 19.3529 11.0595 19.5311C11.2016 19.7089 11.3662 19.8446 11.6375 19.9006C11.8899 19.9526 13.2724 20.1301 13.3443 19.6018C13.4304 18.9686 13.4336 18.2838 14.1596 15.7297C15.2897 11.7533 16.7632 9.81314 17.4561 9.12411C17.577 9.00367 17.7153 8.9965 17.7087 9.19361C17.6793 10.0652 17.5753 12.2438 17.5051 14.0945C17.3174 19.0472 18.2184 19.9652 19.506 19.9652C20.491 19.9652 21.8796 18.9863 23.3681 16.5089C24.2959 14.9649 25.1969 13.451 25.8444 12.3599C26.2956 12.7776 26.8017 13.2269 27.3077 13.7071C28.4834 14.8229 28.8694 15.8832 28.6133 16.8891C28.4174 17.6581 27.6797 18.4506 26.3668 17.6804C25.9841 17.4558 25.8206 17.2821 25.436 17.0286C25.2293 16.8926 24.9138 16.8518 24.7246 16.9945C24.2329 17.3651 23.9517 17.8367 23.7912 18.4203C23.635 18.9882 24.2038 19.2885 24.7934 19.551C25.3011 19.777 26.3922 19.9819 27.0881 20.0051C29.7992 20.0958 31.9713 18.6961 33.4831 15.0853C33.7539 18.2036 34.9056 19.9682 36.907 19.9682C38.245 19.9682 39.5864 18.2388 40.173 16.5374C40.3415 17.231 40.5907 17.8339 40.9127 18.344C42.4547 20.7873 45.4463 20.2614 46.949 18.1868C47.4134 17.5458 47.4843 17.3152 47.4843 17.3152C47.7035 19.2743 49.2811 19.9589 50.1844 19.9589C51.1961 19.9589 52.2406 19.4807 52.9727 17.8325C53.0566 18.0084 53.1507 18.1792 53.2544 18.3442C54.7964 20.7875 57.788 20.2616 59.2907 18.187C59.3614 18.0895 59.423 18.0013 59.4766 17.922L59.5207 19.209L58.1374 20.4778C55.8184 22.6032 54.0567 24.2153 53.9271 26.0926C53.7624 28.4863 55.7025 29.376 57.1725 29.4925C58.7309 29.6163 60.0678 28.7547 60.8884 27.5487C61.6105 26.4875 62.083 24.2032 62.0485 21.9469C62.0347 21.0434 62.012 19.8947 61.9939 18.6633C62.8079 17.718 63.7252 16.5231 64.5695 15.1247C65.49 13.6005 66.4763 11.5539 66.9811 9.96106C66.9811 9.96106 67.838 9.96842 68.7525 9.90855C69.0451 9.88946 69.1289 9.94898 69.075 10.1636C69.0097 10.4225 67.9196 14.6272 68.9145 17.4281C69.5954 19.3455 71.1305 19.9624 72.0406 19.9624C73.106 19.9624 74.125 19.1579 74.6712 17.9631C74.737 18.0963 74.806 18.2252 74.8809 18.3442C76.423 20.7875 79.4041 20.2586 80.9173 18.187C81.2586 17.7196 81.4526 17.3154 81.4526 17.3154C81.7773 19.3429 83.354 19.9693 84.2572 19.9693C85.1979 19.9693 86.0907 19.5836 86.8149 17.8696C86.8452 18.6245 86.8928 19.2414 86.9681 19.4359C87.014 19.5549 87.2813 19.7042 87.4758 19.7763C88.3363 20.0953 89.2141 19.9446 89.5388 19.8789C89.7638 19.8334 89.9392 19.6529 89.9632 19.1869C90.026 17.9633 89.9875 15.9074 90.3584 14.3793C90.9811 11.8151 91.562 10.8202 91.8375 10.328C91.9917 10.0521 92.1657 10.0066 92.172 10.2986C92.1848 10.8894 92.2142 12.6244 92.4556 14.9554C92.6328 16.6698 92.8693 17.6832 93.0512 18.0039C93.5702 18.9208 94.2113 18.9643 94.7333 18.9643C95.0652 18.9643 95.7598 18.8727 95.6977 18.2891C95.6674 18.0046 95.7204 16.2465 96.3344 13.7202C96.7352 12.0705 97.4036 10.5801 97.6447 10.0349C97.7336 9.83397 97.7749 9.9924 97.7735 10.0232C97.7227 11.1593 97.6088 14.8754 98.0716 16.9079C98.699 19.6613 100.514 19.9693 101.146 19.9693C102.497 19.9693 103.601 18.9422 103.973 16.2397C104.063 15.5886 103.931 15.0864 103.533 15.0864ZM46.974 13.4156C46.8966 14.8459 46.6176 16.0415 46.1698 16.91C45.3596 18.4818 43.7566 18.9802 43.0499 16.709C42.5403 15.0713 42.7138 12.8381 42.9258 11.632C43.2404 9.84167 44.0282 8.57251 45.2579 8.69277C46.5211 8.81636 47.1352 10.4397 46.974 13.4156ZM59.3157 13.4363C59.2436 14.7869 58.8935 16.1436 58.5115 16.9101C57.7231 18.4928 56.0747 18.9875 55.3916 16.7092C54.9246 15.1524 55.0365 13.1376 55.2675 11.8683C55.5674 10.221 56.2942 8.69295 57.5996 8.69295C58.8688 8.69277 59.4946 10.0852 59.3157 13.4363ZM59.6378 22.6504C59.6207 25.1142 59.2331 27.2744 58.4016 27.9018C57.2222 28.7914 55.6371 28.1241 55.9653 26.3263C56.2557 24.7354 57.6292 23.1107 59.6413 21.1255C59.6412 21.1255 59.6454 21.5782 59.6378 22.6504ZM80.9426 13.4507C80.874 14.9334 80.5458 16.0924 80.1384 16.91C79.3498 18.4926 77.7132 18.984 77.0186 16.709C76.6399 15.4689 76.6222 13.3976 76.8944 11.667C77.1716 9.90417 77.9453 8.57251 79.2266 8.69277C80.4903 8.81129 81.0818 10.4397 80.9426 13.4507Z" fill="#221F20"/>
</svg>
